<svg width="437" height="234" viewBox="0 0 437 234" fill="none" xmlns="http://www.w3.org/2000/svg">
<path d="M110.808 233.992C39.984 233.992 0.36 184.696 0.36 117.304C0.36 50.224 39.984 0.927998 110.808 0.927998C181.008 0.927998 221.256 50.224 221.256 117.304C221.256 184.696 181.008 233.992 110.808 233.992ZM110.808 188.128C151.368 188.128 163.848 156.304 163.848 117.304C163.848 78.616 151.368 46.792 110.808 46.792C69.936 46.792 57.768 78.616 57.768 117.304C57.768 156.304 69.936 188.128 110.808 188.128ZM303.804 229H247.644V5.91999H303.804V93.28H380.244V5.91999H436.404V229H380.244V139.144H303.804V229Z" fill="#080808"/>
</svg>
